<svg xmlns="http://www.w3.org/2000/svg" viewBox="0 0 512 512" width="512" height="512">
  <defs>
    <linearGradient id="bg" x1="0" y1="0" x2="1" y2="1">
      <stop offset="0%" stop-color="#0a0a1a"/>
      <stop offset="100%" stop-color="#1a1a2e"/>
    </linearGradient>
    <linearGradient id="glow" x1="0" y1="0" x2="1" y2="1">
      <stop offset="0%" stop-color="#007aff" stop-opacity="0.3"/>
      <stop offset="100%" stop-color="#00d4ff" stop-opacity="0"/>
    </linearGradient>
  </defs>
  <rect width="512" height="512" rx="96" fill="url(#bg)"/>
  <circle cx="256" cy="256" r="200" fill="url(#glow)"/>
  <circle cx="256" cy="256" r="180" fill="none" stroke="#007aff" stroke-width="12"/>
  <circle cx="256" cy="256" r="40" fill="#007aff"/>
  <circle cx="256" cy="256" r="20" fill="#0a0a1a" stroke="#007aff" stroke-width="4"/>
  <path d="M256 64 L280 166 L256 176 L232 166 Z" fill="#34c759" opacity="0.9"/>
  <path d="M256 448 L280 346 L256 336 L232 346 Z" fill="#ff3b30" opacity="0.9"/>
  <circle cx="100" cy="140" r="18" fill="#ff9f0a" opacity="0.5"/>
  <circle cx="412" cy="370" r="18" fill="#5ac8fa" opacity="0.5"/>
  <circle cx="120" cy="370" r="14" fill="#ff9f0a" opacity="0.3"/>
  <circle cx="388" cy="132" r="14" fill="#5ac8fa" opacity="0.3"/>
  <rect x="192" y="222" width="128" height="10" rx="5" fill="rgba(255,255,255,0.1)"/>
  <rect x="208" y="242" width="96" height="10" rx="5" fill="rgba(255,255,255,0.07)"/>
  <rect x="224" y="262" width="64" height="10" rx="5" fill="rgba(255,255,255,0.05)"/>
</svg>
